<svg xmlns="http://www.w3.org/2000/svg" width="512" height="512">
<symbol id="telegram">
    <path fill="#1C8ADB" d="m74.38-.39 4.9-.01c4.45-.02 8.91-.01 13.37 0l14.46-.02c9.43-.02 18.87-.02 28.3-.02H168.39c20.81-.02 41.63-.02 62.44 0 19.02 0 38.04 0 57.06-.03 19.55-.03 39.1-.04 58.65-.03l32.9-.01c9.34-.02 18.68-.02 28.01 0h14.28c4.37-.02 8.73-.02 13.1 0h4.71C460.26-.66 477.71 5.52 493 20c5.21 5.34 8.91 11.28 12.31 17.87l.99 1.9c5.45 11.12 6.14 22.43 6.09 34.6l.01 4.9c.02 4.46.01 8.92 0 13.38l.02 14.46c.02 9.43.02 18.87.02 28.3V168.39c.02 20.81.02 41.63 0 62.44 0 19.02 0 38.04.03 57.06.03 19.55.04 39.1.03 58.65l.01 32.9c.02 9.34.02 18.68 0 28.01v14.28c.02 4.37.02 8.73 0 13.1v4.71c.14 21.26-6.4 39.01-21.51 54.46-15.67 13.96-32.86 18.47-53.38 18.39l-4.9.01c-4.45.02-8.91.01-13.37 0l-14.46.02c-9.43.02-18.87.02-28.3.02H343.61c-20.81.02-41.63.02-62.44 0-19.02 0-38.04 0-57.06.03-19.55.03-39.1.04-58.65.03l-32.9.01c-9.34.02-18.68.02-28.01 0H90.27c-4.37.02-8.73.02-13.1 0h-4.71c-21.26.14-39.01-6.4-54.46-21.51C4.04 475.33-.47 458.14-.39 437.62l-.01-4.9c-.02-4.45-.01-8.91 0-13.37l-.02-14.46c-.02-9.43-.02-18.87-.02-28.3V343.61c-.02-20.81-.02-41.63 0-62.44 0-19.02 0-38.04-.03-57.06-.03-19.55-.04-39.1-.03-58.65l-.01-32.9c-.02-9.34-.02-18.68 0-28.01V90.27c-.02-4.37-.02-8.73 0-13.1v-4.71C-.66 51.74 5.52 34.29 20 19c5.34-5.21 11.28-8.91 17.87-12.31l1.9-.99C50.88.25 62.2-.44 74.36-.39Z"/><path fill="#FDFEFE" d="M410 133.69c3.12 2.4 4.62 3.65 6 7.31.42 7.28-.82 13.58-2.56 20.63l-1.67 6.96-.88 3.67c-1.5 6.3-2.91 12.61-4.33 18.93l-.88 3.93-4.4 19.54a3266.5 3266.5 0 0 1-8.83 38.36c-2.86 12.07-5.6 24.16-8.16 36.3a1823.09 1823.09 0 0 1-8.27 36.85l-.51 2.2c-1.18 5.14-2.32 10.28-3.44 15.43l-1.38 6.31c-.43 1.95-.84 3.9-1.26 5.86-4.03 18.32-4.03 18.32-10.43 23.03-4.44 1.97-8.18 2.64-13 2-7.45-3.78-14.31-8.84-21.19-13.56a16553.37 16553.37 0 0 0-8.33-5.7c-4.5-3.08-9.02-6.14-13.55-9.2l-2.06-1.4-8.07-5.46A2351.7 2351.7 0 0 1 267 328c-8.22 3.91-14.52 11.47-20.85 17.88a154.6 154.6 0 0 1-8.17 7.36 120.32 120.32 0 0 0-6.17 6.01c-5.28 5.27-8.66 7.05-16.11 7.44-4.31-1.1-6.98-3.29-9.7-6.69-2.4-5.09-4.08-10.38-5.8-15.73-.5-1.56-1.03-3.11-1.55-4.67-1.36-4.09-2.7-8.19-4.02-12.28-1.35-4.14-2.72-8.28-4.09-12.4-1.78-5.39-3.55-10.77-5.3-16.16L182 289l-1.1-3.4-1.01-3-.85-2.59c-1.24-2.4-2.16-2.96-4.66-3.88-1.8-.4-3.58-.77-5.38-1.13a660.8 660.8 0 0 1-5.94-1.67c-4.01-1.15-8.04-2.23-12.06-3.33a299397.48 299397.48 0 0 1-10.75-2.94l-2.76-.75a2324.5 2324.5 0 0 0-23.17-6.22C99.56 256.13 99.56 256.13 96 250c-.78-4.06-.32-5.53 2-8.97 3.26-3.74 7.01-5.01 11.63-6.56l2.63-.94c2.9-1.02 5.82-2.03 8.74-3.03l6.25-2.2 13.55-4.77a2462 2462 0 0 0 22.13-7.9l1.9-.69 7.67-2.77a14674.14 14674.14 0 0 1 25.31-9.14 130246.58 130246.58 0 0 1 85.5-30.78l3.05-1.1a75041.33 75041.33 0 0 0 73.18-26.37c5.84-2.1 11.65-4.22 17.44-6.43l3.39-1.28c2.09-.78 4.17-1.58 6.25-2.4 7.48-2.8 15.9-4.84 23.38-.98Z"/><path fill="#1E8BDB" d="M359 176c.81 1.69.81 1.69 1 4-3.43 3.77-7.29 7.04-11.19 10.31l-1.73 1.46c-4.15 3.49-8.37 6.9-12.62 10.27-4.53 3.6-8.99 7.29-13.46 10.96a5878.07 5878.07 0 0 1-21.09 17.2 5025.72 5025.72 0 0 0-22.41 18.3l-2.75 2.25-30.25 24.75-2.73 2.24-5.66 4.62-2.86 2.33-2.55 2.07L228 289l-1.73 1.17c-3.78 2.76-5.68 4.84-6.5 9.52-.2 1.81-.37 3.63-.51 5.45l-.3 2.92c-.3 3.06-.57 6.12-.84 9.19-.29 3.08-.59 6.16-.9 9.23-.18 1.91-.36 3.83-.52 5.74l-.24 2.6-.2 2.3C216 339 216 339 215 341l-3-1c-1.16-2.47-1.16-2.47-2.27-5.8l-1.27-3.76-1.35-4.1-1.4-4.2-2.9-8.8c-1.24-3.76-2.5-7.5-3.75-11.26a2268.05 2268.05 0 0 1-4.26-12.8l-1.92-5.83-1.1-3.34c-.8-3.2-1.05-5.83-.78-9.11 2.49-3.23 5.47-5.02 9.02-6.96l3-1.66 3.23-1.75 6.82-3.77 1.75-.97a788.2 788.2 0 0 0 17.3-9.95c7.72-4.53 15.46-9 23.25-13.38 8.14-4.57 16.24-9.2 24.32-13.87 9.2-5.32 18.4-10.61 27.62-15.88l1.78-1.01a42672.97 42672.97 0 0 1 25.99-14.83c3.6-2.05 7.17-4.1 10.7-6.26l3.22-1.96 2.63-1.64c2.66-1.24 4.47-1.34 7.37-1.11Z"/>
</symbol>
</svg>