<svg xmlns="http://www.w3.org/2000/svg" width="512" height="512">
    <symbol id="viber">
        <path fill="#6F3FAA" d="m251.46-.32 10.97.01c33.85.04 67.58.28 101.33 3.05l10.61.83c7.67.6 15.34 1.22 23 1.87l3.56.3c35.28 2.97 35.28 2.97 49.94 10.45l2.4 1.18c17.24 8.78 30.17 22 39.73 38.63l1.49 2.51c8.53 15.55 10 33.16 11.51 50.49l.23 2.65a3614.7 3614.7 0 0 1 2.08 24.94c.64 7.8 1.19 15.6 1.69 23.41l.14 2.1c1.84 28.91 2.18 57.77 2.12 86.74v17.9c.05 28.47-.42 56.84-2.26 85.26l-.25 3.9c-.5 7.52-1.07 15.03-1.69 22.54l-.26 3.24c-.58 7.1-1.18 14.21-1.8 21.32l-.2 2.36c-2.74 31.11-11.02 57.71-35.8 78.64-26.99 20.75-59.04 21.44-91.56 24.06l-3.03.25a1362.96 1362.96 0 0 1-25.52 1.83c-29.78 1.88-59.52 2.22-89.35 2.18l-10.97-.01c-33.85-.04-67.57-.28-101.33-3.05l-10.63-.83c-7.69-.6-15.37-1.22-23.05-1.87l-3.57-.3c-31.91-2.68-59.38-10.17-81.67-34.69C25.3 466.78 22.13 461.4 19 456l-1.5-2.52C8.99 437.92 7.54 420.34 6 403l-.23-2.6c-.64-7.16-1.24-14.31-1.83-21.46l-.25-2.96c-3.11-37.29-4.04-74.5-4-111.9 0-4.78 0-9.56-.03-14.33-.16-44.12 1.44-88.12 5.54-132.06.31-3.4.61-6.82.9-10.24C8.37 82.08 13.45 58.57 31 39l2.46-2.75C40.26 29.07 47.5 23.94 56 19l2.52-1.5C74.07 9 91.67 7.5 109 6l2.65-.23c7.3-.64 14.6-1.24 21.91-1.83l3.03-.25C144.4 3.05 152.2 2.5 160 2l2.1-.14C191.9-.02 221.64-.36 251.47-.32Z"/><path fill="#6F3FAA" d="M255.5 101.75h2.51c22.63.03 45.15 1.5 67.43 5.63l3.04.55c25.03 5.11 47.52 21.85 62.33 42.38 1.43 2.21 2.83 4.44 4.19 6.69l1.07 1.73c7.45 12.21 9.74 25.3 11.93 39.27l.5 2.99c6.8 41.92 7.15 98.4-18.5 134.01-20.11 26.24-45.73 40.18-78.35 44.62-4.65.6-9.3 1.09-13.96 1.57l-2.56.28a210.35 210.35 0 0 1-30.8 1.26l-2.92-.1c-4.65-.15-9.28-.37-13.92-.74-7.14-.4-12.97-.66-18.6 4.25a95.07 95.07 0 0 0-8.34 9.9c-2.56 3.23-5.52 6.05-8.49 8.9-3.5 3.44-6.85 6.9-10 10.69-3.66 4.26-6.92 6.1-12.56 6.8-5.03-.62-8-2.72-11.31-6.5-2.63-4.27-2.32-8.47-2.29-13.32v-2.47a2864.33 2864.33 0 0 1 .05-13.13L176 374l-2.77-.4c-3.94-.73-7.25-2.25-10.8-4.04l-2.1-1.06c-7.12-3.72-13.21-8.34-19.33-13.5l-2.68-2.21c-27.66-23.8-33.77-55.03-36.78-89.88-2.17-28.95-1.35-60 7.46-87.91l.86-2.93c7.7-23.83 28.84-44.66 50.72-56.17 14.61-7.31 29.77-9.34 45.8-11.53L209 104c15.38-2.01 31-2.24 46.49-2.25Z"/><path fill="#FDFCFD" d="M255.5 101.75h2.51c22.63.03 45.15 1.5 67.43 5.63l3.04.55c25.03 5.11 47.52 21.85 62.33 42.38 1.43 2.21 2.83 4.44 4.19 6.69l1.07 1.73c7.45 12.21 9.74 25.3 11.93 39.27l.5 2.99c6.8 41.92 7.15 98.4-18.5 134.01-20.11 26.24-45.73 40.18-78.35 44.62-4.65.6-9.3 1.09-13.96 1.57l-2.56.28a210.35 210.35 0 0 1-30.8 1.26l-2.92-.1c-4.65-.15-9.28-.37-13.92-.74-7.14-.4-12.97-.66-18.6 4.25a95.07 95.07 0 0 0-8.34 9.9c-2.56 3.23-5.52 6.05-8.49 8.9-3.5 3.44-6.85 6.9-10 10.69-3.66 4.26-6.92 6.1-12.56 6.8-5.03-.62-8-2.72-11.31-6.5-2.63-4.27-2.32-8.47-2.29-13.32v-2.47a2864.33 2864.33 0 0 1 .05-13.13L176 374l-2.77-.4c-3.94-.73-7.25-2.25-10.8-4.04l-2.1-1.06c-7.12-3.72-13.21-8.34-19.33-13.5l-2.68-2.21c-27.66-23.8-33.77-55.03-36.78-89.88-2.17-28.95-1.35-60 7.46-87.91l.86-2.93c7.7-23.83 28.84-44.66 50.72-56.17 14.61-7.31 29.77-9.34 45.8-11.53L209 104c15.38-2.01 31-2.24 46.49-2.25ZM200 133l-2.77.44c-17.04 2.78-29.19 9.42-42.23 20.56-.7.6-1.4 1.2-2.13 1.8-12 11.15-18.2 25.34-20.87 41.2l-.42 2.42c-2.2 13.17-2.85 26.19-2.83 39.52v2.19c.05 14.83.54 29.6 3.06 44.25.16.97.3 1.95.47 2.95 2.7 16.14 9.5 27.94 20.72 39.67l1.86 2.09A66.4 66.4 0 0 0 186 349h2v59l5 1c2.1-1.34 2.1-1.34 3.88-3.44l1.86-2c1.2-1.36 2.4-2.73 3.57-4.12 6.88-8.1 14.6-15.42 22.16-22.89a663.46 663.46 0 0 1 7.63-7.54 62.74 62.74 0 0 0 8.26-9.87c2.67-3.12 5.08-3.63 9.14-3.95 2.98-.12 5.95-.1 8.93-.05 4.05.08 8.11.02 12.17-.01l2.45-.02c10.06-.08 19.95-1.24 29.9-2.68 3.15-.44 6.3-.84 9.45-1.23 22.77-3.07 38.25-12.97 53.6-30.2 7.29-9.67 11.17-19.82 13.13-31.69l.47-2.66c.5-2.88.95-5.76 1.4-8.65l.55-3.39c1.52-10.15 1.8-20.1 1.76-30.36v-2.57c-.1-33.43-2.75-63.26-26.75-88.22-9.65-9.25-22.4-16.74-35.68-18.81l-2-.32-4.2-.64a665.4 665.4 0 0 1-6.24-.97c-17.84-2.79-35.67-2.96-53.69-2.97h-3.5c-17.27 0-34.17.42-51.25 3.25Z"/><path fill="#FDFDFE" d="M206 172c5.37 3.47 9.28 8.52 13 13.63l1.56 2.11c10.85 14.95 10.85 14.95 12.13 22.13-1.48 6.74-5.86 10.4-10.98 14.61-2.69 2.39-2.7 3.47-3 7.16.08 4.7 1.6 8.08 3.79 12.17l1.1 2.1c7.5 14.04 17.26 24.6 31.4 32.09l3.5 1.88c4.6 1.48 8.7 1.84 13.5 1.12 4.06-2.3 6.75-5.92 9.67-9.51 2.27-2.54 4.42-2.8 7.7-3.05 6.62.1 10.75 3.33 15.88 7.23 1.94 1.47 3.92 2.9 5.9 4.32l4.29 3.13 2.04 1.49c10.05 7.51 10.05 7.51 11.02 13.4-1.43 8.6-7.57 15.98-14.17 21.37-5.97 4.16-10.96 6.22-18.33 5.62a70 70 0 0 1-8.75-3.38c-.82-.35-1.65-.7-2.5-1.08-14.72-6.5-28.7-14.11-41.75-23.54l-1.73-1.24A161.05 161.05 0 0 1 201 254l-2.13-3.23a267.92 267.92 0 0 1-20-38.27l-1.22-2.75c-2.43-5.88-3.39-10.53-1.65-16.75 4.83-10.11 17.62-23.87 30-21Z"/><path fill="#FAF9FC" d="M278 166c9.2 3.18 17.39 6.8 25 13l2.52 2.02c17.3 14.71 24.8 32.96 27.48 54.98.63 8.08.63 8.08 0 12-2 2-2 2-4.5 2.31L326 250c-2.03-3.05-2.27-3.9-2.46-7.36l-.17-2.6-.18-2.79c-1.47-17.93-7.66-34.8-21.19-47.25-14.02-11.3-28.9-16.63-46.84-17.56-2.66-.54-4.12-1.7-6.16-3.44.38-2.44.38-2.44 1-5 7.91-3.96 20.04-.64 28 2Z"/><path fill="#F9F8FC" d="M261.5 182.81c14.32.26 28.73 6.96 38.63 17.19 9.05 10.74 13.05 22.97 13.14 36.87C313 239 313 239 311 242c-2.5.31-2.5.31-5 0-2.9-2.9-2.55-6.1-2.88-10-1.14-11.06-4.08-19.94-12.12-28a53.15 53.15 0 0 0-28.63-11.56c-3.37-.44-3.37-.44-5.43-1.69-.94-1.75-.94-1.75-.69-4.38 1.16-3.67 1.15-3.34 5.25-3.56Z"/><path fill="#F8F6FB" d="M268 203.69c8 .1 14.38 3.83 20 9.31 4.58 6.37 5.95 13.26 5 21l-2 2c-2.5-.19-2.5-.19-5-1-2.02-3.02-2.33-4.34-2.81-7.81-.95-5.14-2.42-7.6-6.19-11.19-3.53-2.06-7-2.7-10.98-3.44C264 212 264 212 262 210c.6-4.95 1.04-6.15 6-6.31Z"/>
    </symbol>
</svg>