<svg xmlns="http://www.w3.org/2000/svg" width="512" height="512">
<symbol id="whatsap">
    <path fill="#29A71A" d="m74.38-.39 4.9-.01c4.45-.02 8.91-.01 13.37 0l14.46-.02c9.43-.02 18.87-.02 28.3-.02H168.39c20.81-.02 41.63-.02 62.44 0 19.02 0 38.04 0 57.06-.03 19.55-.03 39.1-.04 58.65-.03l32.9-.01c9.34-.02 18.68-.02 28.01 0h14.28c4.37-.02 8.73-.02 13.1 0h4.71C460.26-.66 477.71 5.52 493 20c5.21 5.34 8.91 11.28 12.31 17.87l.99 1.9c5.45 11.12 6.14 22.43 6.09 34.6l.01 4.9c.02 4.46.01 8.92 0 13.38l.02 14.46c.02 9.43.02 18.87.02 28.3V168.39c.02 20.81.02 41.63 0 62.44 0 19.02 0 38.04.03 57.06.03 19.55.04 39.1.03 58.65l.01 32.9c.02 9.34.02 18.68 0 28.01v14.28c.02 4.37.02 8.73 0 13.1v4.71c.14 21.26-6.4 39.01-21.51 54.46-15.67 13.96-32.86 18.47-53.38 18.39l-4.9.01c-4.45.02-8.91.01-13.37 0l-14.46.02c-9.43.02-18.87.02-28.3.02H343.61c-20.81.02-41.63.02-62.44 0-19.02 0-38.04 0-57.06.03-19.55.03-39.1.04-58.65.03l-32.9.01c-9.34.02-18.68.02-28.01 0H90.27c-4.37.02-8.73.02-13.1 0h-4.71c-21.26.14-39.01-6.4-54.46-21.51C4.04 475.33-.47 458.14-.39 437.62l-.01-4.9c-.02-4.45-.01-8.91 0-13.37l-.02-14.46c-.02-9.43-.02-18.87-.02-28.3V343.61c-.02-20.81-.02-41.63 0-62.44 0-19.02 0-38.04-.03-57.06-.03-19.55-.04-39.1-.03-58.65l-.01-32.9c-.02-9.34-.02-18.68 0-28.01V90.27c-.02-4.37-.02-8.73 0-13.1v-4.71C-.66 51.74 5.52 34.29 20 19c5.34-5.21 11.28-8.91 17.87-12.31l1.9-.99C50.88.25 62.2-.44 74.36-.39Z"/><path fill="#29A71A" d="M250.4 95.9c34.43-1.3 69.76 8.33 97.6 29.1l2.37 1.73A208.8 208.8 0 0 1 367 141l2.43 2.23c23.15 22.08 37.32 52.75 43.57 83.77l.63 3.12c2.75 16 2.3 32.94-.63 48.88l-.37 2.15C407.99 307.41 397.72 332.1 381 353l-1.41 1.77c-25.03 31-62.31 53.3-102.25 57.96-6.94.56-13.88.63-20.84.64l-2.17.01c-9.58 0-18.88-.73-28.33-2.38l-2.36-.41c-9.76-1.83-18.75-4.97-27.87-8.86l-2.4-1.02-2.12-.93c-5.86-2.04-10.45-1.6-16.38-.16l-2.37.56a5879.55 5879.55 0 0 1-12.9 3.07c-12.68 3-25.34 6.12-37.97 9.34-18.33 4.64-18.33 4.64-22.5 2.41-2.92-5.18-.82-12.6.37-18.12a866295284.88 866295284.88 0 0 1 1.52-7.21l1.63-7.74c1.45-6.99 2.93-13.97 4.42-20.95l2.47-11.72 1.38-6.45c2.89-12.07 2.89-12.07-.04-23.75-17.42-35.9-18.16-77.98-5.76-115.56 7.96-22.66 20.46-42.09 36.88-59.5l1.96-2.16c11.4-12.05 25.31-21.38 40.04-28.84l1.91-.98c18.62-9.37 39.06-15.47 59.99-15.97l4.5-.14Z"/><path fill="#FDFEFD" d="M250.4 95.9c34.43-1.3 69.76 8.33 97.6 29.1l2.37 1.73A208.8 208.8 0 0 1 367 141l2.43 2.23c23.15 22.08 37.32 52.75 43.57 83.77l.63 3.12c2.75 16 2.3 32.94-.63 48.88l-.37 2.15C407.99 307.41 397.72 332.1 381 353l-1.41 1.77c-25.03 31-62.31 53.3-102.25 57.96-6.94.56-13.88.63-20.84.64l-2.17.01c-9.58 0-18.88-.73-28.33-2.38l-2.36-.41c-9.76-1.83-18.75-4.97-27.87-8.86l-2.4-1.02-2.12-.93c-5.86-2.04-10.45-1.6-16.38-.16l-2.37.56a5879.55 5879.55 0 0 1-12.9 3.07c-12.68 3-25.34 6.12-37.97 9.34-18.33 4.64-18.33 4.64-22.5 2.41-2.92-5.18-.82-12.6.37-18.12a866295284.88 866295284.88 0 0 1 1.52-7.21l1.63-7.74c1.45-6.99 2.93-13.97 4.42-20.95l2.47-11.72 1.38-6.45c2.89-12.07 2.89-12.07-.04-23.75-17.42-35.9-18.16-77.98-5.76-115.56 7.96-22.66 20.46-42.09 36.88-59.5l1.96-2.16c11.4-12.05 25.31-21.38 40.04-28.84l1.91-.98c18.62-9.37 39.06-15.47 59.99-15.97l4.5-.14Zm-92 81.19A117.16 117.16 0 0 0 135 225l-.9 3.66c-6.55 29.17-1.66 58.95 12.27 85.08 3.43 6.46 3.9 10.21 2.27 17.36l-.46 2.05-1.5 6.47a4014.4 4014.4 0 0 0-2.39 10.55c-2.42 10.32-2.42 10.32-3.29 20.83 8.34-.67 16.37-2.55 24.5-4.44l4.13-.94 2.03-.47 5.88-1.33a84.1 84.1 0 0 0 6.07-1.65c5.62-1.73 8.85-.64 14.04 2l2.66 1.45c1.86.95 3.72 1.9 5.58 2.83l2.68 1.36C231.2 380.9 260.9 382.35 285 376l1.94-.5c21.6-5.74 39.46-16.73 56.06-31.5l1.99-1.73c20.49-19.02 33.84-49.65 35.16-77.39.35-12 .62-24.14-2.15-35.88l-.85-3.68c-4.67-19.26-13.57-36.14-26.15-51.32l-1.91-2.34A95.83 95.83 0 0 0 336 159l-2.5-2.09A128.69 128.69 0 0 0 292 135l-1.85-.59c-11.3-3.42-22.67-3.8-34.4-3.85l-2.17-.02c-38.43-.2-70.08 18.32-95.19 46.55Z"/><path fill="#FDFEFD" d="M207 178c5.09 2.7 7.37 5.7 9.61 10.85l.91 1.98c.95 2.07 1.87 4.15 2.8 6.23l1.9 4.2c6.35 13.95 6.35 13.95 5.78 20.74a40.19 40.19 0 0 1-5.6 8.94c-3.21 3.9-5.43 6.8-4.97 12 2.31 8.3 9.83 15 15.57 21.06l1.75 1.87c7.1 7.37 15.28 13.53 23.56 19.5l1.74 1.27c5.46 3.88 10.2 7.02 17.01 6.7 6.03-1.06 10.17-6.41 14.2-10.63 2.3-2.26 3.35-2.67 6.6-2.98 5.69.09 11.1 2 16.51 3.58l3.3.94c3.11.9 6.22 1.81 9.33 2.75l2.69.8 2.4.76 2.09.65c3.55 1.54 4.86 3.44 6.82 6.79 1.14 5.58.02 8.52-2.88 13.38-7.38 10.7-15.91 18.78-28.75 21.93-20.4 3.24-38.75-2.18-56.37-12.31l-2.04-1.16A156.16 156.16 0 0 1 224 298l-1.6-1.43A606.34 606.34 0 0 1 212 287l-2.14-1.98c-17.87-17.07-33.22-40.97-34.26-66.12-.21-12.69 4.23-21.32 12.4-30.9 10.74-10.69 10.74-10.69 19-10Z"/>
</symbol>
</svg>